<svg xmlns="http://www.w3.org/2000/svg" width="1280" height="720" viewBox="0 0 1280 720" role="img" aria-labelledby="title desc">
  <title id="title">豆包 X 且慢AI小顾用户数据看板预览</title>
  <desc id="desc">统计窗口从8月28日豆包上架起，累计绑定用户 1,285 人，其中在绑定时新注册的新用户 887 人、绑定时已有账户的老用户 398 人。画面左侧是累计与每日新增两块分栏走势，右侧是这批用户在且慢的保有规模、入金、交易与触点情况。</desc>
  <defs>
    <linearGradient id="newCard" x1="0" y1="0" x2="1" y2="1">
      <stop offset="0" stop-color="#E6F6F1"/><stop offset="1" stop-color="#FFFFFF"/>
    </linearGradient>
    <linearGradient id="oldCard" x1="0" y1="0" x2="1" y2="1">
      <stop offset="0" stop-color="#E4F0FD"/><stop offset="1" stop-color="#FFFFFF"/>
    </linearGradient>
    <filter id="shadow" x="-15%" y="-15%" width="130%" height="140%">
      <feDropShadow dx="0" dy="9" stdDeviation="16" flood-color="#171B29" flood-opacity=".07"/>
    </filter>
  </defs>

  <rect width="1280" height="720" fill="#F5F6FB"/>
  <circle cx="1185" cy="-4" r="250" fill="#2E7CF6" fill-opacity=".07"/>
  <circle cx="1128" cy="666" r="170" fill="#0F9D78" fill-opacity=".045"/>

  <g font-family="PingFang SC,Microsoft YaHei,sans-serif">
    <g transform="translate(62 24)">
      <circle cx="17" cy="17" r="17" fill="#2E7CF6"/>
      <text x="17" y="22" text-anchor="middle" fill="#FFFFFF" font-size="12" font-weight="700">豆</text>
      <circle cx="45" cy="17" r="17" fill="#0F9D78"/>
      <text x="45" y="22" text-anchor="middle" fill="#FFFFFF" font-size="12" font-weight="700">且</text>
      <text x="76" y="14" fill="#171B29" font-size="14" font-weight="700">豆包 X 且慢AI小顾</text>
      <text x="76" y="31" fill="#697187" font-size="9" letter-spacing="1.5">用户增长与画像</text>
    </g>
    <text x="1216" y="47" text-anchor="end" fill="#697187" font-size="12">数据截至 9月20日 14:03</text>
    <circle cx="1064" cy="43" r="5" fill="#0F9D78"/>

    <text x="62" y="104" fill="#2E7CF6" font-family="SFMono-Regular,monospace" font-size="10" font-weight="700" letter-spacing="2">DOUBAO MCP LAUNCH 08.28 · DATA WINDOW SINCE 08.28</text>
    <text x="62" y="157" fill="#111522" font-family="Songti SC,STSong,serif" font-size="44" font-weight="700">豆包 X 且慢AI小顾 用户数据看板</text>
    <text x="62" y="188" fill="#697187" font-size="13">与千问看板同一口径：从豆包 OAuth 授权绑定看用户增长，再看在且慢的入金、规模与交易 · 新老按绑定当刻是否新注册判定</text>

    <g transform="translate(62 215)" filter="url(#shadow)">
      <rect width="220" height="108" rx="2" fill="#111522"/>
      <text x="22" y="31" fill="#FFFFFF" fill-opacity=".62" font-size="12" font-weight="700">累计绑定用户</text>
      <text x="22" y="78" fill="#FFFFFF" font-family="SFMono-Regular,monospace" font-size="40" font-weight="800" letter-spacing="-2">1,285</text>
      <circle cx="194" cy="26" r="5" fill="#7FB3FF"/>
    </g>
    <g transform="translate(296 215)" filter="url(#shadow)">
      <rect width="220" height="108" rx="2" fill="url(#newCard)"/>
      <text x="22" y="31" fill="#0A7A5E" font-size="12" font-weight="700">绑定时新注册</text>
      <text x="22" y="78" fill="#0A7A5E" font-family="SFMono-Regular,monospace" font-size="40" font-weight="800" letter-spacing="-2">887</text>
      <text x="195" y="76" text-anchor="end" fill="#0A7A5E" font-family="SFMono-Regular,monospace" font-size="14" font-weight="700">69.0%</text>
    </g>
    <g transform="translate(530 215)" filter="url(#shadow)">
      <rect width="228" height="108" rx="2" fill="url(#oldCard)"/>
      <text x="22" y="31" fill="#1F5FC4" font-size="12" font-weight="700">绑定时已有账户</text>
      <text x="22" y="78" fill="#1F5FC4" font-family="SFMono-Regular,monospace" font-size="40" font-weight="800" letter-spacing="-2">398</text>
      <text x="202" y="76" text-anchor="end" fill="#1F5FC4" font-family="SFMono-Regular,monospace" font-size="14" font-weight="700">31.0%</text>
    </g>

    <g transform="translate(62 341)" filter="url(#shadow)">
      <rect width="696" height="333" rx="2" fill="#FFFFFF"/>
      <text x="26" y="30" fill="#2E7CF6" font-family="SFMono-Regular,monospace" font-size="9" font-weight="700" letter-spacing="1.4">GROWTH</text>
      <text x="26" y="54" fill="#171B29" font-size="17" font-weight="700">累计与每日新增分栏走势</text>

      <g font-size="9">
        <line x1="286" y1="26" x2="301" y2="26" stroke="#111522" stroke-width="2.5" stroke-linecap="round"/>
        <text x="307" y="29" fill="#697187">累计绑定</text>
        <text x="307" y="45" fill="#111522" font-family="SFMono-Regular,monospace" font-size="11" font-weight="700">1,285</text>
        <line x1="386" y1="26" x2="401" y2="26" stroke="#0F9D78" stroke-width="2" stroke-linecap="round"/>
        <text x="407" y="29" fill="#697187">累计新用户</text>
        <text x="407" y="45" fill="#111522" font-family="SFMono-Regular,monospace" font-size="11" font-weight="700">887</text>
        <line x1="498" y1="26" x2="513" y2="26" stroke="#2E7CF6" stroke-width="2" stroke-linecap="round"/>
        <text x="519" y="29" fill="#697187">累计老用户</text>
        <text x="519" y="45" fill="#111522" font-family="SFMono-Regular,monospace" font-size="11" font-weight="700">398</text>
        <rect x="612" y="21" width="9" height="10" rx="2" fill="#2E7CF6"/>
        <text x="627" y="29" fill="#697187">当日新增</text>
        <text x="627" y="45" fill="#111522" font-family="SFMono-Regular,monospace" font-size="11" font-weight="700">+51</text>
      </g>

      <text x="53" y="82" fill="#697187" font-size="9" font-weight="700">累计绑定用户（人）</text>
      <g stroke="#E9EBF3" stroke-width="1"><line x1="53" y1="180" x2="664" y2="180"/><line x1="53" y1="150" x2="664" y2="150"/><line x1="53" y1="120" x2="664" y2="120"/><line x1="53" y1="90" x2="664" y2="90"/></g>
      <line x1="53" y1="210" x2="664" y2="210" stroke="#CFD4E1" stroke-width="1"/>
      <g fill="#8A91A5" font-family="SFMono-Regular,monospace" font-size="8"><text x="44" y="213" text-anchor="end">0</text><text x="44" y="183" text-anchor="end">375</text><text x="44" y="153" text-anchor="end">750</text><text x="44" y="123" text-anchor="end">1,125</text><text x="44" y="93" text-anchor="end">1,500</text></g>

      <path d="M71.0 209.8 L96.0 208.3 L121.0 207.3 L146.0 205.0 L171.0 202.8 L196.0 201.6 L221.0 200.6 L246.0 199.1 L271.0 198.2 L296.0 197.7 L321.0 196.8 L346.0 195.2 L371.0 194.1 L396.0 192.6 L421.0 191.4 L446.0 190.0 L471.0 189.4 L496.0 187.4 L521.0 186.0 L546.0 184.3 L571.0 182.3 L596.0 180.5 L621.0 179.1 L646.0 178.2" fill="none" stroke="#2E7CF6" stroke-width="2" stroke-linecap="round" stroke-linejoin="round"/>
      <path d="M71.0 210.0 L96.0 209.2 L121.0 207.9 L146.0 205.8 L171.0 203.7 L196.0 201.6 L221.0 199.9 L246.0 196.3 L271.0 194.4 L296.0 192.2 L321.0 189.5 L346.0 185.9 L371.0 183.0 L396.0 179.5 L421.0 177.4 L446.0 174.0 L471.0 170.6 L496.0 166.2 L521.0 161.7 L546.0 158.1 L571.0 154.0 L596.0 147.9 L621.0 142.2 L646.0 139.0" fill="none" stroke="#0F9D78" stroke-width="2" stroke-linecap="round" stroke-linejoin="round"/>
      <path d="M71.0 209.8 L96.0 207.5 L121.0 205.2 L146.0 200.8 L171.0 196.5 L196.0 193.2 L221.0 190.5 L246.0 185.4 L271.0 182.6 L296.0 179.8 L321.0 176.3 L346.0 171.1 L371.0 167.1 L396.0 162.1 L421.0 158.7 L446.0 154.0 L471.0 150.0 L496.0 143.6 L521.0 137.7 L546.0 132.4 L571.0 126.3 L596.0 118.4 L621.0 111.3 L646.0 107.2" fill="none" stroke="#111522" stroke-width="2.5" stroke-linecap="round" stroke-linejoin="round"/>
      <g stroke="#FFFFFF" stroke-width="2">
        <circle cx="646.0" cy="107.2" r="4.5" fill="#111522"/>
        <circle cx="646.0" cy="139.0" r="4.5" fill="#0F9D78"/>
        <circle cx="646.0" cy="178.2" r="4.5" fill="#2E7CF6"/>
      </g>

      <text x="53" y="232" fill="#697187" font-size="9" font-weight="700">每日新增绑定（人）</text>
      <g stroke="#E9EBF3" stroke-width="1">
        <line x1="53" y1="240" x2="664" y2="240"/>
        <line x1="53" y1="257.5" x2="664" y2="257.5"/>
      </g>
      <line x1="53" y1="275" x2="664" y2="275" stroke="#CFD4E1" stroke-width="1"/>
      <g fill="#8A91A5" font-family="SFMono-Regular,monospace" font-size="8">
        <text x="44" y="243" text-anchor="end">120</text>
        <text x="44" y="278" text-anchor="end">0</text>
      </g>

      <g fill="#2E7CF6"><rect x="65.0" y="274.42" width="12" height="0.58" rx="1.5"/><rect x="90.0" y="266.54" width="12" height="5.54" rx="1.5"/><rect x="115.0" y="266.54" width="12" height="3.79" rx="1.5"/><rect x="140.0" y="258.96" width="12" height="8.46" rx="1.5"/><rect x="165.0" y="259.25" width="12" height="7.88" rx="1.5"/><rect x="190.0" y="263.04" width="12" height="4.38" rx="1.5"/><rect x="215.0" y="265.08" width="12" height="3.79" rx="1.5"/><rect x="240.0" y="256.62" width="12" height="5.25" rx="1.5"/><rect x="265.0" y="264.79" width="12" height="3.21" rx="1.5"/><rect x="290.0" y="264.79" width="12" height="2.04" rx="1.5"/><rect x="315.0" y="262.17" width="12" height="3.21" rx="1.5"/><rect x="340.0" y="256.04" width="12" height="5.83" rx="1.5"/><rect x="365.0" y="260.42" width="12" height="4.08" rx="1.5"/><rect x="390.0" y="256.62" width="12" height="5.54" rx="1.5"/><rect x="415.0" y="262.75" width="12" height="4.38" rx="1.5"/><rect x="440.0" y="257.79" width="12" height="4.96" rx="1.5"/><rect x="465.0" y="260.42" width="12" height="2.33" rx="1.5"/><rect x="490.0" y="251.67" width="12" height="7.00" rx="1.5"/><rect x="515.0" y="253.42" width="12" height="5.25" rx="1.5"/><rect x="540.0" y="255.75" width="12" height="6.12" rx="1.5"/><rect x="565.0" y="252.83" width="12" height="7.29" rx="1.5"/><rect x="590.0" y="246.12" width="12" height="6.71" rx="1.5"/><rect x="615.0" y="249.04" width="12" height="4.96" rx="1.5"/><rect x="640.0" y="260.12" width="12" height="3.50" rx="1.5"/></g>
      <g fill="#0F9D78"><rect x="65.0" y="275.00" width="12" height="0.00"/><rect x="90.0" y="272.08" width="12" height="2.92"/><rect x="115.0" y="270.33" width="12" height="4.67"/><rect x="140.0" y="267.42" width="12" height="7.58"/><rect x="165.0" y="267.12" width="12" height="7.88"/><rect x="190.0" y="267.42" width="12" height="7.58"/><rect x="215.0" y="268.88" width="12" height="6.12"/><rect x="240.0" y="261.88" width="12" height="13.12"/><rect x="265.0" y="268.00" width="12" height="7.00"/><rect x="290.0" y="266.83" width="12" height="8.17"/><rect x="315.0" y="265.38" width="12" height="9.62"/><rect x="340.0" y="261.88" width="12" height="13.12"/><rect x="365.0" y="264.50" width="12" height="10.50"/><rect x="390.0" y="262.17" width="12" height="12.83"/><rect x="415.0" y="267.12" width="12" height="7.88"/><rect x="440.0" y="262.75" width="12" height="12.25"/><rect x="465.0" y="262.75" width="12" height="12.25"/><rect x="490.0" y="258.67" width="12" height="16.33"/><rect x="515.0" y="258.67" width="12" height="16.33"/><rect x="540.0" y="261.88" width="12" height="13.12"/><rect x="565.0" y="260.12" width="12" height="14.88"/><rect x="590.0" y="252.83" width="12" height="22.17"/><rect x="615.0" y="254.00" width="12" height="21.00"/><rect x="640.0" y="263.62" width="12" height="11.38"/></g>

      <g fill="#8A91A5" font-family="SFMono-Regular,monospace" font-size="8.5"><text x="71.0" y="292" text-anchor="middle">8.28</text><text x="146.0" y="292" text-anchor="middle">8.31</text><text x="221.0" y="292" text-anchor="middle">9.3</text><text x="296.0" y="292" text-anchor="middle">9.6</text><text x="371.0" y="292" text-anchor="middle">9.9</text><text x="446.0" y="292" text-anchor="middle">9.12</text><text x="521.0" y="292" text-anchor="middle">9.15</text><text x="596.0" y="292" text-anchor="middle">9.18</text><text x="646.0" y="292" text-anchor="middle">9.20</text></g>
      <text x="26" y="316" fill="#9AA0AF" font-size="9">8月28日豆包上架首日即有用户完成授权绑定 · 最新一天截至 9月20日 14:03，尚未走完</text>
    </g>

    <g transform="translate(790 215)" filter="url(#shadow)">
      <rect width="426" height="459" rx="2" fill="#111522"/>
      <text x="28" y="33" fill="#5ED5BB" font-family="SFMono-Regular,monospace" font-size="9" font-weight="700" letter-spacing="1.4">QIEMAN VALUE</text>
      <text x="28" y="67" fill="#FFFFFF" font-family="Songti SC,STSong,serif" font-size="26" font-weight="700">在且慢的经营与画像</text>
      <text x="28" y="89" fill="#FFFFFF" fill-opacity=".48" font-size="10">入金、保有规模、交易，加上年龄性别居住地与触点</text>

      <g transform="translate(28 108)">
        <rect width="370" height="70" rx="2" fill="#FFFFFF" fill-opacity=".055"/>
        <text x="18" y="24" fill="#FFFFFF" fill-opacity=".58" font-size="11">当前保有规模（含绑定前已有资产）</text>
        <text x="18" y="56" fill="#5ED5BB" font-family="SFMono-Regular,monospace" font-size="27" font-weight="800">2,452 万元</text>
        <text x="352" y="52" text-anchor="end" fill="#FFFFFF" fill-opacity=".42" font-size="9">108 人持有</text>
      </g>
      <g transform="translate(28 186)">
        <rect width="177" height="70" rx="2" fill="#FFFFFF" fill-opacity=".055"/>
        <text x="16" y="24" fill="#FFFFFF" fill-opacity=".58" font-size="10">绑定后入金</text>
        <text x="16" y="52" fill="#BFD7FF" font-family="SFMono-Regular,monospace" font-size="21" font-weight="800">17.7 万</text>
        <text x="161" y="66" text-anchor="end" fill="#FFFFFF" fill-opacity=".38" font-size="8.5">33 人 · 83 笔</text>
      </g>
      <g transform="translate(221 186)">
        <rect width="177" height="70" rx="2" fill="#FFFFFF" fill-opacity=".055"/>
        <text x="16" y="24" fill="#FFFFFF" fill-opacity=".58" font-size="10">绑定后买入</text>
        <text x="16" y="52" fill="#BFD7FF" font-family="SFMono-Regular,monospace" font-size="21" font-weight="800">36.6 万</text>
        <text x="161" y="66" text-anchor="end" fill="#FFFFFF" fill-opacity=".38" font-size="8.5">51 人</text>
      </g>

      <line x1="28" y1="278" x2="398" y2="278" stroke="#FFFFFF" stroke-opacity=".12"/>
      <text x="28" y="302" fill="#FFFFFF" fill-opacity=".62" font-size="11" font-weight="700">保有规模分档</text>
      <text x="398" y="302" text-anchor="end" fill="#FFFFFF" fill-opacity=".34" font-size="9">共 108 人持有</text>

      <g transform="translate(28 316)" font-size="9"><text x="0" y="10" fill="#FFFFFF" fill-opacity=".5">1万元及以下</text><rect x="76" y="2" width="198" height="9" rx="4.5" fill="#FFFFFF" fill-opacity=".09"/><rect x="76" y="2" width="95" height="9" rx="4.5" fill="#5ED5BB"/><text x="360" y="10" text-anchor="end" fill="#FFFFFF" fill-opacity=".74" font-family="SFMono-Regular,monospace">24</text><text x="0" y="32" fill="#FFFFFF" fill-opacity=".5">1—10万</text><rect x="76" y="24" width="198" height="9" rx="4.5" fill="#FFFFFF" fill-opacity=".09"/><rect x="76" y="24" width="123" height="9" rx="4.5" fill="#5ED5BB"/><text x="360" y="32" text-anchor="end" fill="#FFFFFF" fill-opacity=".74" font-family="SFMono-Regular,monospace">31</text><text x="0" y="54" fill="#FFFFFF" fill-opacity=".5">10—100万</text><rect x="76" y="46" width="198" height="9" rx="4.5" fill="#FFFFFF" fill-opacity=".09"/><rect x="76" y="46" width="198" height="9" rx="4.5" fill="#5ED5BB"/><text x="360" y="54" text-anchor="end" fill="#FFFFFF" fill-opacity=".74" font-family="SFMono-Regular,monospace">50</text><text x="0" y="76" fill="#FFFFFF" fill-opacity=".5">100万以上</text><rect x="76" y="68" width="198" height="9" rx="4.5" fill="#FFFFFF" fill-opacity=".09"/><rect x="76" y="68" width="12" height="9" rx="4.5" fill="#5ED5BB"/><text x="360" y="76" text-anchor="end" fill="#FFFFFF" fill-opacity=".74" font-family="SFMono-Regular,monospace">3</text></g>

      <line x1="28" y1="410" x2="398" y2="410" stroke="#FFFFFF" stroke-opacity=".12"/>
      <g transform="translate(28 428)" font-size="9">
        <text x="0" y="0" fill="#FFFFFF" fill-opacity=".5">公众号绑定</text>
        <text x="66" y="0" fill="#FFFFFF" font-family="SFMono-Regular,monospace" font-weight="700">246</text>
        <text x="124" y="0" fill="#FFFFFF" fill-opacity=".5">已绑卡</text>
        <text x="168" y="0" fill="#FFFFFF" font-family="SFMono-Regular,monospace" font-weight="700">182</text>
        <text x="224" y="0" fill="#FFFFFF" fill-opacity=".5">已测评</text>
        <text x="268" y="0" fill="#FFFFFF" font-family="SFMono-Regular,monospace" font-weight="700">49</text>
      </g>
      <text x="28" y="452" fill="#FFFFFF" fill-opacity=".28" font-size="8.5">只展示符合公开口径的整体数据，不含个人明细与单人金额</text>
    </g>
  </g>
</svg>
