<svg xmlns="http://www.w3.org/2000/svg" width="1200" height="675" viewBox="0 0 1200 675" role="img" aria-labelledby="title desc">
  <title id="title">盈米 MCP 个人中心 · 机构版</title>
  <desc id="desc">管理员在合约范围内管账号、分限额的精简页面封面</desc>
  <defs><linearGradient id="bg" x1="0" y1="0" x2="1" y2="1"><stop stop-color="#EAF1FF"/><stop offset="1" stop-color="#F7F9FC"/></linearGradient>
  <filter id="shadow" x="-20%" y="-20%" width="140%" height="140%"><feDropShadow dx="0" dy="14" stdDeviation="18" flood-color="#1F3878" flood-opacity=".12"/></filter></defs>
  <rect width="1200" height="675" fill="url(#bg)"/>
  <circle cx="1080" cy="80" r="220" fill="#3B7BFF" opacity=".07"/>
  <g transform="translate(75 62)" font-family="PingFang SC,Microsoft YaHei,sans-serif">
    <rect width="176" height="34" rx="17" fill="#3B7BFF" opacity=".1"/>
    <text x="88" y="23" text-anchor="middle" font-size="15" font-weight="700" fill="#2A62E0">盈米 AI 开放平台 · 机构版</text>
    <text y="108" font-size="56" font-weight="800" fill="#1F2633">合约范围内，管账号、分限额</text>
    <text y="154" font-size="24" fill="#4E5869">账号 · 积分 · 效期由盈米按约定开通 ｜ 管理员分配额度与日 / 月限额</text>
  </g>
  <g transform="translate(75 240)" filter="url(#shadow)" font-family="PingFang SC,Microsoft YaHei,sans-serif">
    <rect width="300" height="330" rx="18" fill="#fff"/>
    <g transform="translate(24 26)">
      <text font-size="15" font-weight="700" fill="#1F2633">机构配额</text><text x="252" y="0" text-anchor="end" font-size="12" fill="#8A93A6">按合约开通</text>
      <g transform="translate(0 40)"><text font-size="13" fill="#4E5869">账号</text><text x="252" y="0" text-anchor="end" font-size="14" font-weight="700" fill="#1F2633">8 <tspan font-size="12" font-weight="400" fill="#8A93A6">/ 20</tspan></text><rect y="10" width="252" height="6" rx="3" fill="#EDF0F6"/><rect y="10" width="101" height="6" rx="3" fill="#3B7BFF"/></g>
      <g transform="translate(0 92)"><text font-size="13" fill="#4E5869">积分</text><text x="252" y="0" text-anchor="end" font-size="14" font-weight="700" fill="#1F2633">500,000</text><rect y="10" width="252" height="6" rx="3" fill="#EDF0F6"/><rect y="10" width="84" height="6" rx="3" fill="#3B7BFF"/><rect x="84" y="10" width="62" height="6" fill="#9DB7FF"/>
        <g transform="translate(0 36)" font-size="12"><rect width="8" height="8" rx="2" fill="#3B7BFF"/><text x="12" y="8" fill="#8A93A6">已用</text><text y="28" font-size="14" font-weight="700" fill="#1F2633">165,890</text>
        <rect x="88" width="8" height="8" rx="2" fill="#9DB7FF"/><text x="100" y="8" fill="#8A93A6">已分配未用</text><text x="88" y="28" font-size="14" font-weight="700" fill="#1F2633">123,910</text>
        <rect x="184" width="8" height="8" rx="2" fill="#EDF0F6"/><text x="196" y="8" fill="#8A93A6">待分配</text><text x="184" y="28" font-size="14" font-weight="700" fill="#1F2633">220,000</text></g></g>
      <g transform="translate(0 190)"><text font-size="13" fill="#4E5869">效期</text><text x="252" y="0" text-anchor="end" font-size="14" font-weight="700" fill="#1F2633">2027-08-31 <tspan font-size="12" font-weight="400" fill="#8A93A6">剩 344 天</tspan></text></g>
      <line y1="222" x2="252" y2="222" stroke="#E8ECF3" stroke-dasharray="3 3"/>
      <text y="248" font-size="12" fill="#8A93A6">扩容或延期请联系客户经理</text>
    </g>
    <rect x="322" width="728" height="330" rx="18" fill="#fff"/>
    <g transform="translate(346 24)" font-size="13">
      <g><rect width="58" height="26" rx="13" fill="#EEF3FF"/><text x="29" y="17" text-anchor="middle" font-size="12" font-weight="700" fill="#3B7BFF">在用 7</text><text x="70" y="17" font-size="12" fill="#4E5869">已暂停 1</text><text x="130" y="17" font-size="12" fill="#4E5869">已移除 1</text>
        <text x="445" y="17" font-size="12" fill="#8A93A6">还可新增 12 · 待分配 220,000</text><rect x="632" width="48" height="26" rx="6" fill="#3B7BFF"/><text x="656" y="17" text-anchor="middle" font-size="12" font-weight="700" fill="#fff">＋ 新增</text></g>
      <g transform="translate(0 48)" fill="#8A93A6" font-size="12"><text y="12">成员</text><text x="130" y="12">状态</text><text x="220" y="12">积分（已用 / 分配）</text><text x="410" y="12">限额</text><text x="540" y="12">效期</text></g>
      <line y1="68" x2="680" y2="68" stroke="#E8ECF3"/>
      <g transform="translate(0 84)">
        <g><text y="14" font-weight="600" fill="#1F2633">周子航</text><text y="30" font-size="10.5" fill="#8A93A6" font-family="Menlo,monospace">136****4410</text><rect x="130" y="4" width="62" height="18" rx="9" fill="#FFF4E8"/><text x="161" y="17" text-anchor="middle" font-size="11" font-weight="700" fill="#C9700F">今日限流</text>
          <text x="220" y="14" fill="#1F2633" font-weight="500">37,800</text><text x="370" y="14" text-anchor="end" fill="#8A93A6" font-size="12">/ 40,000</text><rect x="220" y="22" width="150" height="5" rx="2.5" fill="#EDF0F6"/><rect x="220" y="22" width="142" height="5" rx="2.5" fill="#E5484D"/>
          <text x="410" y="14" fill="#4E5869">日 2,000 · 月 15,000</text><text x="540" y="14" fill="#4E5869">2026-12-31</text>
          <g transform="translate(626 2)" fill="none" stroke="#6B7590" stroke-width="1.8" stroke-linecap="round"><path d="M0 14h9M6.5 1.5a1.6 1.6 0 0 1 2.3 2.3L2.5 10 0 10.6l.6-2.5z" transform="translate(2 2) scale(1.1)"/><g transform="translate(24 1)"><rect x="1" y="1" width="3" height="12" rx="1"/><rect x="8" y="1" width="3" height="12" rx="1"/></g><g transform="translate(48 1)"><path d="M0 3h13M4 3V1h5v2M12 3l-1 10H2L1 3M5 6v5M8 6v5"/></g></g></g>
        <g transform="translate(0 50)"><text y="14" font-weight="600" fill="#1F2633">林墨</text><text y="30" font-size="10.5" fill="#8A93A6" font-family="Menlo,monospace">139****8032</text><rect x="130" y="4" width="40" height="18" rx="9" fill="#E8F7F0"/><text x="150" y="17" text-anchor="middle" font-size="11" font-weight="700" fill="#22A96F">正常</text>
          <text x="220" y="14" fill="#1F2633" font-weight="500">28,900</text><text x="370" y="14" text-anchor="end" fill="#8A93A6" font-size="12">/ 50,000</text><rect x="220" y="22" width="150" height="5" rx="2.5" fill="#EDF0F6"/><rect x="220" y="22" width="87" height="5" rx="2.5" fill="#3B7BFF"/>
          <text x="410" y="14" fill="#4E5869">日 2,000 · 月 15,000</text><text x="540" y="14" fill="#4E5869">2027-08-31</text>
          <g transform="translate(626 2)" fill="none" stroke="#6B7590" stroke-width="1.8" stroke-linecap="round"><path d="M0 14h9M6.5 1.5a1.6 1.6 0 0 1 2.3 2.3L2.5 10 0 10.6l.6-2.5z" transform="translate(2 2) scale(1.1)"/><g transform="translate(24 1)"><rect x="1" y="1" width="3" height="12" rx="1"/><rect x="8" y="1" width="3" height="12" rx="1"/></g><g transform="translate(48 1)"><path d="M0 3h13M4 3V1h5v2M12 3l-1 10H2L1 3M5 6v5M8 6v5"/></g></g></g>
        <g transform="translate(0 100)"><text y="14" font-weight="600" fill="#1F2633">吴晚晴</text><text y="30" font-size="10.5" fill="#8A93A6" font-family="Menlo,monospace">137****9921</text><rect x="130" y="4" width="40" height="18" rx="9" fill="#E8F7F0"/><text x="150" y="17" text-anchor="middle" font-size="11" font-weight="700" fill="#22A96F">正常</text>
          <text x="220" y="14" fill="#1F2633" font-weight="500">12,040</text><text x="370" y="14" text-anchor="end" fill="#8A93A6" font-size="12">/ 30,000</text><rect x="220" y="22" width="150" height="5" rx="2.5" fill="#EDF0F6"/><rect x="220" y="22" width="60" height="5" rx="2.5" fill="#3B7BFF"/>
          <text x="410" y="14" fill="#4E5869">日 1,000</text><text x="540" y="14" fill="#C9700F">2026-10-15</text>
          <g transform="translate(626 2)" fill="none" stroke="#6B7590" stroke-width="1.8" stroke-linecap="round"><path d="M0 14h9M6.5 1.5a1.6 1.6 0 0 1 2.3 2.3L2.5 10 0 10.6l.6-2.5z" transform="translate(2 2) scale(1.1)"/><g transform="translate(24 1)"><rect x="1" y="1" width="3" height="12" rx="1"/><rect x="8" y="1" width="3" height="12" rx="1"/></g><g transform="translate(48 1)"><path d="M0 3h13M4 3V1h5v2M12 3l-1 10H2L1 3M5 6v5M8 6v5"/></g></g></g>
        <g transform="translate(0 150)"><text y="14" font-weight="600" fill="#1F2633">韩奕</text><text y="30" font-size="10.5" fill="#8A93A6" font-family="Menlo,monospace">150****3388</text><rect x="130" y="4" width="50" height="18" rx="9" fill="#FFF4E8"/><text x="155" y="17" text-anchor="middle" font-size="11" font-weight="700" fill="#C9700F">未登录</text>
          <text x="220" y="14" fill="#1F2633" font-weight="500">0</text><text x="370" y="14" text-anchor="end" fill="#8A93A6" font-size="12">/ 20,000</text><rect x="220" y="22" width="150" height="5" rx="2.5" fill="#EDF0F6"/>
          <text x="410" y="14" fill="#4E5869">日 1,000 · 月 8,000</text><text x="540" y="14" fill="#4E5869">2027-08-31</text>
          <g transform="translate(626 2)" fill="none" stroke="#6B7590" stroke-width="1.8" stroke-linecap="round"><path d="M0 14h9M6.5 1.5a1.6 1.6 0 0 1 2.3 2.3L2.5 10 0 10.6l.6-2.5z" transform="translate(2 2) scale(1.1)"/><g transform="translate(24 1)"><rect x="1" y="1" width="3" height="12" rx="1"/><rect x="8" y="1" width="3" height="12" rx="1"/></g><g transform="translate(48 1)"><path d="M0 3h13M4 3V1h5v2M12 3l-1 10H2L1 3M5 6v5M8 6v5"/></g></g></g>
      </g>
    </g>
  </g>
  <text x="75" y="628" font-family="PingFang SC,Microsoft YaHei,sans-serif" font-size="18" fill="#4E5869">已用 / 已分配未用 / 待分配 一眼可见 ｜ 图标操作：编辑 · 暂停 · 移除 ｜ 已移除账号留档可查</text>
</svg>
