<svg xmlns="http://www.w3.org/2000/svg" width="1920" height="1080" viewBox="0 0 1920 1080" role="img" aria-labelledby="title desc">
  <title id="title">盈米 AI 四个持续驱动平台运转、两种模式放大势能</title>
  <desc id="desc">自下而上展示四个持续作为核心运转引擎，向盈米 AI 开放平台注入能力，再通过大厂 AI 平台接入和 C 端产品接入触达更多群体、放大势能。</desc>
  <defs>
    <linearGradient id="bg" x1="0" y1="0" x2="1" y2="1">
      <stop offset="0" stop-color="#fbfaff"/>
      <stop offset="0.58" stop-color="#f4f1fc"/>
      <stop offset="1" stop-color="#eae5fa"/>
    </linearGradient>
    <linearGradient id="violet" x1="0" y1="0" x2="1" y2="1">
      <stop offset="0" stop-color="#6f59d9"/>
      <stop offset="1" stop-color="#a992ff"/>
    </linearGradient>
    <linearGradient id="navy" x1="0" y1="0" x2="1" y2="1">
      <stop offset="0" stop-color="#111a33"/>
      <stop offset="1" stop-color="#202a49"/>
    </linearGradient>
    <filter id="shadow" x="-20%" y="-20%" width="140%" height="140%">
      <feDropShadow dx="0" dy="12" stdDeviation="16" flood-color="#3b2a75" flood-opacity="0.12"/>
    </filter>
    <marker id="arrow" markerWidth="11" markerHeight="11" refX="9" refY="5.5" orient="auto">
      <path d="M0,0 L11,5.5 L0,11 Z" fill="#8067e8"/>
    </marker>
    <style>
      text{font-family:"Songti SC","Noto Serif SC",STSong,SimSun,serif;fill:#161927}
      .sans{font-family:"PingFang SC","Microsoft YaHei",Arial,sans-serif}
      .eyebrow{font-size:16px;font-weight:700;letter-spacing:3px;fill:#8067e8}
      .title{font-size:48px;font-weight:700;letter-spacing:-1px}
      .subtitle{font-size:20px;fill:#687287}
      .module{font-size:15px;font-weight:700;letter-spacing:2px;fill:#8067e8}
      .outcome{font-size:35px;font-weight:700;fill:#ffffff}
      .outcome-sub{font-size:17px;fill:#ede9ff}
      .mode-title{font-size:27px;font-weight:700}
      .mode-body{font-size:16px;fill:#687287}
      .platform-title{font-size:32px;font-weight:700;fill:#ffffff}
      .platform-sub{font-size:17px;fill:#d9dff0}
      .card-title{font-size:27px;font-weight:700}
      .card-sub{font-size:15px;fill:#687287}
      .metric{font-size:34px;font-weight:700;fill:#8067e8}
      .metric-light{font-size:34px;font-weight:700;fill:#b8a7ff}
      .bullet{font-size:16px;fill:#354058}
      .bullet-light{font-size:16px;fill:#eef0f8}
      .chip{font-size:15px;fill:#354058}
      .chip-light{font-size:15px;fill:#eef0f8}
      .note{font-size:13px;fill:#7a8497}
    </style>
  </defs>

  <rect width="1920" height="1080" fill="url(#bg)"/>
  <circle cx="1740" cy="70" r="260" fill="none" stroke="#8067e8" stroke-opacity="0.08" stroke-width="2"/>
  <circle cx="1740" cy="70" r="190" fill="none" stroke="#8067e8" stroke-opacity="0.07" stroke-width="2"/>

  <text x="64" y="48" class="eyebrow sans">YINGMI AI · CAUSAL ACTION MAP</text>
  <text x="64" y="104" class="title">四个持续驱动平台运转 · 两种模式放大势能</text>
  <text x="64" y="141" class="subtitle">核心举措持续供给 → 平台沉淀与编排 → 两种接入触达更多群体 → 放大势能</text>

  <text x="64" y="188" class="module sans">MODULE 02 · 势能放大模块</text>
  <rect x="456" y="166" width="1008" height="116" rx="30" fill="url(#violet)" filter="url(#shadow)"/>
  <text x="960" y="213" class="outcome" text-anchor="middle">触达更多群体 · 放大平台势能</text>
  <text x="960" y="248" class="outcome-sub" text-anchor="middle">更多入口｜更多场景｜更多用户｜更多机会</text>
  <rect x="1490" y="175" width="132" height="42" rx="13" fill="#ffffff" fill-opacity="0.18"/>
  <text x="1556" y="202" class="sans" font-size="15" fill="#ffffff" text-anchor="middle">互动 300万+</text>
  <rect x="1634" y="175" width="154" height="42" rx="13" fill="#ffffff" fill-opacity="0.18"/>
  <text x="1711" y="202" class="sans" font-size="15" fill="#ffffff" text-anchor="middle">浏览 1,000万+</text>
  <rect x="1490" y="228" width="298" height="38" rx="13" fill="#ffffff" fill-opacity="0.14"/>
  <text x="1639" y="253" class="sans" font-size="14" fill="#ffffff" text-anchor="middle">原创阅读 3万+ · 全网报道 8,965篇</text>

  <path d="M550 348 C550 312 700 306 820 282" fill="none" stroke="#8067e8" stroke-width="4" stroke-linecap="round" marker-end="url(#arrow)"/>
  <path d="M1370 348 C1370 312 1220 306 1100 282" fill="none" stroke="#8067e8" stroke-width="4" stroke-linecap="round" marker-end="url(#arrow)"/>
  <text x="960" y="314" class="sans" font-size="14" fill="#8067e8" text-anchor="middle">扩大触达</text>

  <rect x="160" y="344" width="760" height="126" rx="24" fill="#ffffff" stroke="#ddd7f1" filter="url(#shadow)"/>
  <circle cx="215" cy="407" r="30" fill="#eeeaff"/>
  <text x="215" y="417" class="sans" font-size="27" font-weight="700" fill="#8067e8" text-anchor="middle">A</text>
  <text x="266" y="395" class="mode-title">大厂 AI 平台接入</text>
  <text x="266" y="428" class="mode-body">借助平台原生入口，把财富管理专业能力分发给更多用户</text>
  <text x="266" y="452" class="sans" font-size="13" fill="#8067e8">百炼 · 百度 · 扣子 · 小艺 · 千问 · 微信 / WorkBuddy</text>

  <rect x="1000" y="344" width="760" height="126" rx="24" fill="#ffffff" stroke="#ddd7f1" filter="url(#shadow)"/>
  <circle cx="1055" cy="407" r="30" fill="#eeeaff"/>
  <text x="1055" y="417" class="sans" font-size="27" font-weight="700" fill="#8067e8" text-anchor="middle">B</text>
  <text x="1106" y="395" class="mode-title">C 端产品接入</text>
  <text x="1106" y="428" class="mode-body">把平台能力嵌入用户正在使用的产品与具体服务场景</text>
  <text x="1106" y="452" class="sans" font-size="13" fill="#8067e8">用户入口 · 真实场景 · 持续服务 · 结果回流</text>

  <path d="M760 522 C720 510 620 502 540 470" fill="none" stroke="#8067e8" stroke-width="4" stroke-linecap="round" marker-end="url(#arrow)"/>
  <path d="M1160 522 C1200 510 1300 502 1380 470" fill="none" stroke="#8067e8" stroke-width="4" stroke-linecap="round" marker-end="url(#arrow)"/>
  <text x="960" y="507" class="sans" font-size="14" fill="#8067e8" text-anchor="middle">标准能力输出与场景编排</text>

  <rect x="486" y="514" width="948" height="116" rx="28" fill="url(#navy)" filter="url(#shadow)"/>
  <text x="960" y="558" class="platform-title" text-anchor="middle">盈米 AI 开放平台</text>
  <text x="960" y="593" class="platform-sub" text-anchor="middle">MCP 标准连接｜Skills 专业流程｜Agent 完整任务</text>
  <text x="960" y="617" class="sans" font-size="13" style="fill:#9fabc1" text-anchor="middle">沉淀能力 · 统一编排 · 服务输出</text>

  <path d="M267 690 C267 660 550 652 720 630" fill="none" stroke="#8067e8" stroke-width="3" stroke-linecap="round" marker-end="url(#arrow)"/>
  <path d="M729 690 C729 660 820 652 900 630" fill="none" stroke="#8067e8" stroke-width="3" stroke-linecap="round" marker-end="url(#arrow)"/>
  <path d="M1191 690 C1191 660 1100 652 1020 630" fill="none" stroke="#8067e8" stroke-width="3" stroke-linecap="round" marker-end="url(#arrow)"/>
  <path d="M1653 690 C1653 660 1370 652 1200 630" fill="none" stroke="#8067e8" stroke-width="3" stroke-linecap="round" marker-end="url(#arrow)"/>
  <text x="960" y="665" class="sans" font-size="14" fill="#8067e8" text-anchor="middle">持续注入能力、首发机会、合作生态与品牌声量</text>

  <text x="64" y="692" class="module sans">MODULE 01 · 核心运转模块｜四个持续</text>

  <rect x="56" y="708" width="422" height="316" rx="24" fill="#ffffff" stroke="#ddd7f1" filter="url(#shadow)"/>
  <text x="84" y="748" class="eyebrow sans">01 · KEEP BUILDING</text>
  <text x="84" y="790" class="card-title">持续建设</text>
  <text x="84" y="823" class="metric">3层能力</text>
  <rect x="84" y="844" width="366" height="62" rx="16" fill="#f1edfc"/>
  <text x="267" y="884" class="sans" font-size="27" font-weight="700" fill="#8067e8" text-anchor="middle">MCP · Skills · Agent</text>
  <circle cx="92" cy="938" r="4" fill="#8067e8"/><text x="108" y="944" class="bullet">标准连接 → 专业流程 → 完整任务</text>
  <circle cx="92" cy="978" r="4" fill="#8067e8"/><text x="108" y="984" class="bullet">能力持续沉淀并形成可复用资产</text>

  <rect x="518" y="708" width="422" height="316" rx="24" fill="url(#navy)" filter="url(#shadow)"/>
  <text x="546" y="748" class="sans" font-size="16" font-weight="700" letter-spacing="3" style="fill:#b8a7ff">02 · KEEP LEADING</text>
  <text x="546" y="790" class="sans" font-size="27" font-weight="700" style="fill:#ffffff">持续抢先</text>
  <text x="546" y="823" class="metric-light">4项首个 / 首批</text>
  <circle cx="554" cy="862" r="4" fill="#b8a7ff"/><text x="570" y="868" class="bullet-light">首个财富 MCP Server</text>
  <circle cx="554" cy="900" r="4" fill="#b8a7ff"/><text x="570" y="906" class="bullet-light">首个理财测评集 / 投顾智能立体模型</text>
  <circle cx="554" cy="938" r="4" fill="#b8a7ff"/><text x="570" y="944" class="bullet-light">首个投顾龙虾 OpenClaw</text>
  <circle cx="554" cy="976" r="4" fill="#b8a7ff"/><text x="570" y="982" class="bullet-light">首批千问 MCP / A2A 接入合作商</text>

  <rect x="980" y="708" width="422" height="316" rx="24" fill="#ffffff" stroke="#ddd7f1" filter="url(#shadow)"/>
  <text x="1008" y="748" class="eyebrow sans">03 · KEEP PARTNERING</text>
  <text x="1008" y="790" class="card-title">持续合作</text>
  <text x="1008" y="823" class="metric">8类生态伙伴</text>
  <text x="1008" y="856" class="bullet">阿里云 / 百炼 · 百度 · 火山 / 扣子</text>
  <text x="1008" y="884" class="bullet">华为 / 小艺 · 夸克 / 千问</text>
  <text x="1008" y="912" class="bullet">腾讯 / 微信 / WorkBuddy · 智谱</text>
  <text x="1008" y="940" class="bullet">金融机构</text>
  <rect x="1008" y="960" width="168" height="42" rx="13" fill="#eeeaff"/>
  <text x="1092" y="987" class="chip" text-anchor="middle">活动 10场+</text>
  <rect x="1188" y="960" width="186" height="42" rx="13" fill="#f2f0f7"/>
  <text x="1281" y="987" class="chip" text-anchor="middle">交流机构 30家+</text>

  <rect x="1442" y="708" width="422" height="316" rx="24" fill="#ffffff" stroke="#ddd7f1" filter="url(#shadow)"/>
  <text x="1470" y="748" class="eyebrow sans">04 · KEEP VISIBLE</text>
  <text x="1470" y="790" class="card-title">持续曝光</text>
  <text x="1470" y="823" class="metric">8,965篇报道</text>
  <rect x="1470" y="844" width="176" height="44" rx="13" fill="#eeeaff"/><text x="1558" y="872" class="chip" text-anchor="middle">原创 50+</text>
  <rect x="1658" y="844" width="178" height="44" rx="13" fill="#f2f0f7"/><text x="1747" y="872" class="chip" text-anchor="middle">阅读 3万+</text>
  <rect x="1470" y="900" width="176" height="44" rx="13" fill="#f2f0f7"/><text x="1558" y="928" class="chip" text-anchor="middle">发布 300+篇</text>
  <rect x="1658" y="900" width="178" height="44" rx="13" fill="#eeeaff"/><text x="1747" y="928" class="chip" text-anchor="middle">MCP 3,329篇</text>
  <rect x="1470" y="956" width="176" height="44" rx="13" fill="#eeeaff"/><text x="1558" y="984" class="chip" text-anchor="middle">互动 300万+</text>
  <rect x="1658" y="956" width="178" height="44" rx="13" fill="#f2f0f7"/><text x="1747" y="984" class="chip" text-anchor="middle">浏览 1,000万+</text>

  <text x="64" y="1060" class="note sans">来源：用户提供关键行动素材（2026-08-02）及盈米 AI 阶段成果源稿；“首个 / 首批”、活动与机构口径用于外部引用前仍需补公开证据。</text>
</svg>
